<svg width="396" height="380" viewBox="0 0 396 380" fill="none" xmlns="http://www.w3.org/2000/svg">
<g filter="url(#filter0_d_1450_27218)">
<path d="M188.031 269.556V269.558H285.739V269.556C285.944 269.557 286.151 269.558 286.357 269.558C324.267 269.558 355 239.049 355 201.414C355 163.779 324.267 133.269 286.357 133.269C253.763 133.269 226.474 155.822 219.462 186.066H218.042C209.778 179.199 199.131 175.065 187.511 175.065C161.227 175.065 139.919 196.218 139.919 222.311C139.919 248.405 161.227 269.558 187.511 269.558C187.685 269.558 187.858 269.557 188.031 269.556Z" fill="url(#paint0_linear_1450_27218)"/>
<path d="M207.969 219.541V219.543H110.261V219.541C110.056 219.543 109.849 219.543 109.643 219.543C71.7325 219.543 41 189.034 41 151.399C41 113.764 71.7325 83.2544 109.643 83.2544C142.237 83.2544 169.526 105.807 176.538 136.051H177.958C186.222 129.184 196.869 125.05 208.489 125.05C234.773 125.05 256.081 146.203 256.081 172.297C256.081 198.39 234.773 219.543 208.489 219.543C208.315 219.543 208.142 219.542 207.969 219.541Z" fill="url(#paint1_linear_1450_27218)"/>
<g filter="url(#filter1_dd_1450_27218)">
<g filter="url(#filter2_bi_1450_27218)">
<rect x="106.888" y="22.0276" width="182.112" height="280.972" rx="16" fill="url(#paint2_linear_1450_27218)"/>
<rect x="107.638" y="22.7776" width="180.612" height="279.472" rx="15.25" stroke="url(#paint3_linear_1450_27218)" stroke-width="1.5"/>
</g>
</g>
<path d="M127.9 169.938V176.211H129.022V174.137H130.291C131.56 174.137 132.451 173.29 132.451 172.038C132.451 170.786 131.586 169.938 130.339 169.938H127.9ZM129.022 170.855H130.043C130.847 170.855 131.312 171.286 131.312 172.038C131.312 172.799 130.843 173.233 130.039 173.233H129.022V170.855Z" fill="white"/>
<path d="M133.195 176.211H134.277V169.938H133.195V176.211Z" fill="white"/>
<path d="M136.555 176.285C137.146 176.285 137.724 175.976 137.989 175.476H138.011V176.211H139.054V173.038C139.054 172.112 138.311 171.507 137.168 171.507C135.994 171.507 135.26 172.125 135.212 172.985H136.216C136.285 172.603 136.611 172.355 137.124 172.355C137.659 172.355 137.985 172.633 137.985 173.116V173.446L136.768 173.516C135.646 173.585 135.016 174.077 135.016 174.894C135.016 175.724 135.664 176.285 136.555 176.285ZM136.881 175.468C136.411 175.468 136.098 175.228 136.098 174.85C136.098 174.485 136.398 174.25 136.92 174.216L137.985 174.15V174.503C137.985 175.059 137.494 175.468 136.881 175.468Z" fill="white"/>
<path d="M140.228 170.525V171.603H139.567V172.438H140.228V174.985C140.228 175.881 140.619 176.233 141.615 176.233C141.845 176.233 142.058 176.215 142.176 176.189V175.363C142.106 175.376 141.967 175.385 141.867 175.385C141.484 175.385 141.31 175.211 141.31 174.833V172.438H142.18V171.603H141.31V170.525H140.228Z" fill="white"/>
<path d="M143.484 170.908C143.814 170.908 144.075 170.642 144.075 170.321C144.075 169.995 143.814 169.734 143.484 169.734C143.154 169.734 142.888 169.995 142.888 170.321C142.888 170.642 143.154 170.908 143.484 170.908ZM142.945 176.211H144.027V171.603H142.945V176.211Z" fill="white"/>
<path d="M144.936 176.211H146.018V173.542C146.018 172.881 146.414 172.433 147.035 172.433C147.653 172.433 147.957 172.799 147.957 173.451V176.211H149.039V173.233C149.039 172.168 148.461 171.516 147.444 171.516C146.736 171.516 146.244 171.847 145.997 172.394H145.975V171.603H144.936V176.211Z" fill="white"/>
<path d="M150.474 170.908C150.804 170.908 151.065 170.642 151.065 170.321C151.065 169.995 150.804 169.734 150.474 169.734C150.144 169.734 149.878 169.995 149.878 170.321C149.878 170.642 150.144 170.908 150.474 170.908ZM149.935 176.211H151.017V171.603H149.935V176.211Z" fill="white"/>
<path d="M156.012 171.603H154.93V174.268C154.93 174.937 154.543 175.381 153.917 175.381C153.308 175.381 152.986 175.024 152.986 174.363V171.603H151.904V174.581C151.904 175.646 152.539 176.293 153.539 176.293C154.238 176.293 154.704 175.972 154.947 175.411H154.969V176.211H156.012V171.603Z" fill="white"/>
<path d="M156.899 176.211H157.981V173.39C157.981 172.833 158.346 172.429 158.868 172.429C159.372 172.429 159.685 172.746 159.685 173.259V176.211H160.737V173.364C160.737 172.812 161.094 172.429 161.615 172.429C162.146 172.429 162.441 172.751 162.441 173.316V176.211H163.524V173.051C163.524 172.129 162.928 171.516 162.019 171.516C161.354 171.516 160.807 171.873 160.585 172.442H160.559C160.389 171.851 159.924 171.516 159.272 171.516C158.646 171.516 158.159 171.868 157.959 172.403H157.938V171.603H156.899V176.211Z" fill="white"/>
<path d="M166.284 169.938V176.211H167.405V174.137H168.675C169.944 174.137 170.835 173.29 170.835 172.038C170.835 170.786 169.97 169.938 168.722 169.938H166.284ZM167.405 170.855H168.427C169.231 170.855 169.696 171.286 169.696 172.038C169.696 172.799 169.227 173.233 168.423 173.233H167.405V170.855Z" fill="white"/>
<path d="M171.578 176.211H172.661V169.938H171.578V176.211Z" fill="white"/>
<path d="M177.669 171.603H176.586V174.268C176.586 174.937 176.199 175.381 175.573 175.381C174.965 175.381 174.643 175.024 174.643 174.363V171.603H173.561V174.581C173.561 175.646 174.195 176.293 175.195 176.293C175.895 176.293 176.36 175.972 176.604 175.411H176.625V176.211H177.669V171.603Z" fill="white"/>
<path d="M178.473 172.925C178.473 173.607 178.916 174.042 179.799 174.237L180.564 174.407C181.046 174.516 181.211 174.672 181.211 174.95C181.211 175.294 180.885 175.511 180.359 175.511C179.812 175.511 179.503 175.285 179.42 174.837H178.355C178.442 175.728 179.155 176.302 180.359 176.302C181.49 176.302 182.289 175.715 182.289 174.846C182.289 174.176 181.92 173.807 180.964 173.594L180.199 173.424C179.716 173.316 179.525 173.133 179.525 172.868C179.525 172.529 179.842 172.303 180.32 172.303C180.82 172.303 181.129 172.568 181.172 172.985H182.181C182.155 172.112 181.442 171.507 180.32 171.507C179.207 171.507 178.473 172.081 178.473 172.925Z" fill="white"/>
<path d="M129.928 158.017V143.6H127.35V158.017H129.928Z" fill="white"/>
<path d="M137.681 158.017V147.906H137.771L144.935 158.017H147.153V143.6H144.675V153.701H144.585L137.432 143.6H135.194V158.017H137.681Z" fill="white"/>
<path d="M159.403 158.017L164.419 143.6H161.641L157.984 155.249H157.924L154.267 143.6H151.43L156.446 158.017H159.403Z" fill="white"/>
<path d="M178.017 155.839H171.263V151.723H177.648V149.674H171.263V145.778H178.017V143.6H168.685V158.017H178.017V155.839Z" fill="white"/>
<path d="M182.384 153.991C182.504 156.628 184.712 158.257 188.049 158.257C191.516 158.257 193.684 156.518 193.684 153.761C193.684 151.623 192.415 150.404 189.378 149.774L187.819 149.454C186.021 149.075 185.302 148.445 185.302 147.466C185.302 146.257 186.441 145.498 188.039 145.498C189.688 145.498 190.827 146.317 190.947 147.676H193.414C193.354 145.098 191.246 143.36 188.059 143.36C184.932 143.36 182.704 145.078 182.704 147.616C182.704 149.724 184.053 151.083 186.94 151.673L188.489 151.992C190.367 152.382 191.086 153.021 191.086 154.06C191.086 155.259 189.877 156.119 188.139 156.119C186.341 156.119 185.042 155.319 184.852 153.991H182.384Z" fill="white"/>
<path d="M204.555 158.257C207.962 158.257 210.32 156.388 210.77 153.301H208.242C207.842 155.04 206.474 156.069 204.565 156.069C202.067 156.069 200.489 154.04 200.489 150.803C200.489 147.586 202.077 145.548 204.555 145.548C206.424 145.548 207.892 146.737 208.232 148.545H210.77C210.45 145.448 207.902 143.36 204.555 143.36C200.459 143.36 197.851 146.207 197.851 150.803C197.851 155.429 200.439 158.257 204.555 158.257Z" fill="white"/>
<path d="M221.811 143.36C217.604 143.36 214.967 146.227 214.967 150.813C214.967 155.399 217.604 158.257 221.811 158.257C226.007 158.257 228.645 155.399 228.645 150.813C228.645 146.227 226.007 143.36 221.811 143.36ZM221.811 145.558C224.378 145.558 226.017 147.596 226.017 150.813C226.017 154.02 224.378 156.059 221.811 156.059C219.233 156.059 217.604 154.02 217.604 150.813C217.604 147.596 219.233 145.558 221.811 145.558Z" fill="white"/>
<path d="M236.009 152.592H238.796L241.634 158.017H244.571L241.424 152.202C243.143 151.583 244.142 149.994 244.142 148.086C244.142 145.328 242.273 143.6 239.156 143.6H233.431V158.017H236.009V152.592ZM236.009 145.688H238.866C240.495 145.688 241.504 146.627 241.504 148.146C241.504 149.704 240.555 150.613 238.916 150.613H236.009V145.688Z" fill="white"/>
<path d="M258.28 155.839H251.526V151.723H257.91V149.674H251.526V145.778H258.28V143.6H248.948V158.017H258.28V155.839Z" fill="white"/>
<g clip-path="url(#clip0_1450_27218)">
<path d="M217.38 75.4446C217.091 75.3631 216.797 75.028 216.736 74.7081C216.695 74.4998 216.744 74.3552 217.051 73.7778C218.291 71.4442 218.83 69.2968 218.83 66.6902C218.83 64.1712 218.353 62.2112 217.168 59.862C216.913 59.3577 216.705 58.8895 216.705 58.8218C216.705 58.5718 216.92 58.2094 217.153 58.0672C217.472 57.8723 218.007 57.9088 218.263 58.1427C218.362 58.2326 218.617 58.641 218.832 59.05C219.68 60.6701 220.261 62.4476 220.548 64.2977C220.725 65.4426 220.761 67.6126 220.619 68.6607C220.357 70.5943 219.832 72.3195 218.992 74.0097C218.485 75.0314 218.166 75.4516 217.899 75.4516C217.846 75.4516 217.759 75.4646 217.706 75.4805C217.653 75.4961 217.506 75.4801 217.38 75.4446ZM213.928 73.688C213.484 73.5623 213.164 73.0324 213.293 72.6353C213.324 72.5392 213.533 72.0964 213.757 71.6514C214.707 69.7671 215.102 67.7472 214.908 65.764C214.749 64.1344 214.449 63.1067 213.693 61.603C213.185 60.5941 213.162 60.4378 213.457 60.0316C213.737 59.6454 214.437 59.5828 214.805 59.911C215.06 60.1384 215.853 61.7491 216.159 62.6613C217.172 65.6799 217.017 68.9204 215.719 71.8859C215.054 73.4049 214.588 73.8746 213.928 73.688ZM210.369 71.9066C210.095 71.7862 209.859 71.504 209.794 71.2196C209.755 71.0463 209.823 70.8547 210.148 70.2134C211.344 67.8581 211.356 65.5894 210.187 63.2888C209.674 62.2784 209.663 62.0773 210.097 61.6789C210.311 61.4822 210.402 61.4475 210.703 61.4475C211.208 61.4475 211.47 61.6942 211.921 62.5955C212.615 63.9819 212.899 65.1845 212.896 66.7254C212.894 68.3092 212.628 69.3964 211.887 70.8583C211.463 71.6953 211.253 71.9163 210.828 71.973C210.698 71.9903 210.492 71.9603 210.369 71.9066ZM207.048 70.2472C206.83 70.1597 206.582 69.872 206.508 69.6219C206.426 69.3424 206.493 69.1206 206.82 68.5987C207.239 67.9275 207.337 67.5673 207.337 66.69C207.337 65.8129 207.239 65.4526 206.82 64.7814C206.677 64.5538 206.535 64.2812 206.502 64.1755C206.367 63.7332 206.746 63.191 207.255 63.0981C207.686 63.0193 207.983 63.2066 208.379 63.809C209.528 65.5531 209.528 67.883 208.379 69.6123C207.974 70.2224 207.522 70.4381 207.048 70.2472Z" fill="white"/>
</g>
<rect x="199.762" y="49.0852" width="34.3928" height="24.4234" rx="3.75" transform="rotate(90 199.762 49.0852)" fill="url(#paint4_linear_1450_27218)" stroke="white" stroke-width="0.5"/>
<path fill-rule="evenodd" clip-rule="evenodd" d="M199.91 61.474L195.103 66.2819L199.91 71.0898L199.557 71.4433L194.645 66.5319H191.703C191.565 66.5319 191.453 66.4199 191.453 66.2819V61.5475H183.646V66.2819V71.0155H191.707C191.845 71.0155 191.957 71.1275 191.957 71.2655V83.7272H191.457V71.5155H183.646V83.7283H183.146V71.5155H183.122V71.0155H183.146V66.5319H180.453L175.542 71.4433L175.188 71.0898L179.996 66.2819L175.188 61.474L175.542 61.1204L180.453 66.0319H183.146V61.5475H183.118V61.0475H183.146V48.8354H183.646V61.0475H191.453V48.8354H191.953V61.0475H191.979V61.5475H191.953V66.0319H194.645L199.557 61.1204L199.91 61.474Z" fill="#ABA9A4"/>
<g clip-path="url(#clip1_1450_27218)">
<path d="M253.644 262.434C249.914 262.434 246.581 264.37 246.581 267.949C246.581 272.053 252.491 272.336 252.491 274.398C252.491 275.267 251.499 276.042 249.803 276.042C248.333 276.033 246.888 275.66 245.596 274.956L244.826 278.567C246.363 279.175 248.001 279.486 249.653 279.485C253.731 279.485 256.947 277.455 256.947 273.813C256.947 269.477 251.01 269.201 251.01 267.289C251.01 266.609 251.821 265.868 253.517 265.868C254.714 265.884 255.895 266.153 256.981 266.658L257.735 263.17C256.429 262.673 255.042 262.423 253.644 262.434ZM241.177 262.698L237.674 279.215H241.929L245.42 262.698H241.177ZM264.932 262.698C264.482 262.692 264.043 262.838 263.686 263.113C263.329 263.388 263.074 263.775 262.963 264.212L256.722 279.215H261.18L262.043 276.714H267.483L268.008 279.215H271.949L268.504 262.698H264.932ZM265.514 267.163L266.837 273.361H263.291L265.52 267.163L265.514 267.163Z" fill="url(#paint5_linear_1450_27218)"/>
<path d="M239.374 262.698L239.193 263.128H235.21L230.339 275.47L228.25 264.474C228.178 264.063 227.963 263.69 227.643 263.422C227.324 263.153 226.92 263.006 226.503 263.006H220.356C220.917 263.163 222.019 263.469 222.558 263.678C224.526 264.387 224.745 264.882 225.085 266.208L228.341 278.783H232.665L232.485 279.215H228.007L224.668 266.317C224.362 265.126 224.236 264.742 222.412 264.084C221.446 263.709 220.448 263.421 219.43 263.224L219.521 262.698H226.649C227.14 262.677 227.62 262.841 227.995 263.158C228.371 263.475 228.613 263.921 228.675 264.409L230.485 273.927L234.916 262.698H239.374Z" fill="url(#paint6_linear_1450_27218)"/>
<path d="M249.643 279.054C248.171 279.055 246.709 278.798 245.325 278.295L245.922 275.125C247.107 275.839 248.428 276.299 249.8 276.474C251.851 276.474 252.922 275.43 252.922 274.398C252.922 273.285 251.74 272.647 250.489 271.971C248.859 271.091 247.012 270.093 247.012 267.949C247.012 264.456 250.45 262.865 253.644 262.865L253.729 262.865C255.061 262.932 256.377 263.195 257.632 263.647L256.981 266.658C255.88 266.199 254.708 265.932 253.517 265.868C252.201 265.868 251.01 266.397 251.01 267.289C251.01 268.117 252.18 268.675 253.42 269.334C255.119 270.237 256.947 271.467 256.947 273.813C256.947 276.997 253.822 279.054 249.653 279.054H249.643ZM268.358 278.784L267.833 276.283H262.218L261.329 278.784H257.368L263.36 264.378C263.733 263.479 264.173 263.129 264.932 263.129H268.594L271.949 278.784H268.358ZM262.678 273.792H267.37L265.622 265.606L262.678 273.792ZM238.206 278.784L241.526 263.129H245.325L242.02 278.784H238.206Z" fill="url(#paint7_linear_1450_27218)"/>
<path d="M239.193 263.128L232.665 278.783H228.341L225.085 266.208C224.745 264.882 224.526 264.387 222.558 263.678C222.019 263.469 220.917 263.163 220.356 263.006H226.503C226.92 263.006 227.324 263.153 227.643 263.422C227.963 263.69 228.177 264.063 228.25 264.474L230.339 275.47L235.21 263.128H239.193Z" fill="url(#paint8_linear_1450_27218)"/>
</g>
</g>
<defs>
<filter id="filter0_d_1450_27218" x="0" y="1" width="396" height="396" filterUnits="userSpaceOnUse" color-interpolation-filters="sRGB">
<feFlood flood-opacity="0" result="BackgroundImageFix"/>
<feColorMatrix in="SourceAlpha" type="matrix" values="0 0 0 0 0 0 0 0 0 0 0 0 0 0 0 0 0 0 127 0" result="hardAlpha"/>
<feOffset dy="36"/>
<feGaussianBlur stdDeviation="20.5"/>
<feComposite in2="hardAlpha" operator="out"/>
<feColorMatrix type="matrix" values="0 0 0 0 0.294118 0 0 0 0 0.570118 0 0 0 0 0.894118 0 0 0 0.17 0"/>
<feBlend mode="normal" in2="BackgroundImageFix" result="effect1_dropShadow_1450_27218"/>
<feBlend mode="normal" in="SourceGraphic" in2="effect1_dropShadow_1450_27218" result="shape"/>
</filter>
<filter id="filter1_dd_1450_27218" x="80.8883" y="0.0275879" width="242.112" height="340.972" filterUnits="userSpaceOnUse" color-interpolation-filters="sRGB">
<feFlood flood-opacity="0" result="BackgroundImageFix"/>
<feColorMatrix in="SourceAlpha" type="matrix" values="0 0 0 0 0 0 0 0 0 0 0 0 0 0 0 0 0 0 127 0" result="hardAlpha"/>
<feOffset dx="4" dy="8"/>
<feGaussianBlur stdDeviation="15"/>
<feComposite in2="hardAlpha" operator="out"/>
<feColorMatrix type="matrix" values="0 0 0 0 0.0156863 0 0 0 0 0.0823529 0 0 0 0 0.172549 0 0 0 0.14 0"/>
<feBlend mode="normal" in2="BackgroundImageFix" result="effect1_dropShadow_1450_27218"/>
<feColorMatrix in="SourceAlpha" type="matrix" values="0 0 0 0 0 0 0 0 0 0 0 0 0 0 0 0 0 0 127 0" result="hardAlpha"/>
<feOffset dx="1" dy="10"/>
<feGaussianBlur stdDeviation="7"/>
<feComposite in2="hardAlpha" operator="out"/>
<feColorMatrix type="matrix" values="0 0 0 0 0.0156863 0 0 0 0 0.0823529 0 0 0 0 0.172549 0 0 0 0.14 0"/>
<feBlend mode="normal" in2="effect1_dropShadow_1450_27218" result="effect2_dropShadow_1450_27218"/>
<feBlend mode="normal" in="SourceGraphic" in2="effect2_dropShadow_1450_27218" result="shape"/>
</filter>
<filter id="filter2_bi_1450_27218" x="94.8883" y="10.0276" width="206.112" height="304.972" filterUnits="userSpaceOnUse" color-interpolation-filters="sRGB">
<feFlood flood-opacity="0" result="BackgroundImageFix"/>
<feGaussianBlur in="BackgroundImageFix" stdDeviation="6"/>
<feComposite in2="SourceAlpha" operator="in" result="effect1_backgroundBlur_1450_27218"/>
<feBlend mode="normal" in="SourceGraphic" in2="effect1_backgroundBlur_1450_27218" result="shape"/>
<feColorMatrix in="SourceAlpha" type="matrix" values="0 0 0 0 0 0 0 0 0 0 0 0 0 0 0 0 0 0 127 0" result="hardAlpha"/>
<feOffset/>
<feGaussianBlur stdDeviation="2"/>
<feComposite in2="hardAlpha" operator="arithmetic" k2="-1" k3="1"/>
<feColorMatrix type="matrix" values="0 0 0 0 1 0 0 0 0 1 0 0 0 0 1 0 0 0 0.64 0"/>
<feBlend mode="normal" in2="shape" result="effect2_innerShadow_1450_27218"/>
</filter>
<linearGradient id="paint0_linear_1450_27218" x1="385.593" y1="201.414" x2="104.206" y2="201.414" gradientUnits="userSpaceOnUse">
<stop stop-color="#255DBE"/>
<stop offset="1" stop-color="#5A9BF8"/>
</linearGradient>
<linearGradient id="paint1_linear_1450_27218" x1="10.4066" y1="151.399" x2="291.794" y2="151.399" gradientUnits="userSpaceOnUse">
<stop stop-color="#255DBE"/>
<stop offset="1" stop-color="#5A9BF8"/>
</linearGradient>
<linearGradient id="paint2_linear_1450_27218" x1="284.37" y1="298.817" x2="34.4394" y2="136.933" gradientUnits="userSpaceOnUse">
<stop stop-color="#4B88E4" stop-opacity="0.42"/>
<stop offset="1" stop-color="#00B2FF" stop-opacity="0.49"/>
</linearGradient>
<linearGradient id="paint3_linear_1450_27218" x1="197.944" y1="22.0276" x2="197.944" y2="303" gradientUnits="userSpaceOnUse">
<stop offset="0.442708" stop-color="white" stop-opacity="0.26"/>
<stop offset="1" stop-color="#4BC8E4" stop-opacity="0.26"/>
</linearGradient>
<linearGradient id="paint4_linear_1450_27218" x1="200.012" y1="49.1121" x2="235.459" y2="73.4817" gradientUnits="userSpaceOnUse">
<stop stop-color="#F3F4F8"/>
<stop offset="1" stop-color="#F8F8FF"/>
</linearGradient>
<linearGradient id="paint5_linear_1450_27218" x1="254.811" y1="259.883" x2="254.811" y2="287.688" gradientUnits="userSpaceOnUse">
<stop offset="0.06856" stop-color="white"/>
<stop offset="0.53073" stop-color="#808080"/>
<stop offset="0.70275" stop-color="white"/>
</linearGradient>
<linearGradient id="paint6_linear_1450_27218" x1="229.402" y1="259.883" x2="229.402" y2="287.688" gradientUnits="userSpaceOnUse">
<stop offset="0.1057" stop-color="white"/>
<stop offset="0.53073" stop-color="#808080"/>
<stop offset="0.71704" stop-color="white"/>
</linearGradient>
<linearGradient id="paint7_linear_1450_27218" x1="255.077" y1="256.626" x2="255.077" y2="285.301" gradientUnits="userSpaceOnUse">
<stop offset="0.1662" stop-color="#929292"/>
<stop offset="0.51955" stop-color="white"/>
<stop offset="0.8227" stop-color="#8B8B8B"/>
</linearGradient>
<linearGradient id="paint8_linear_1450_27218" x1="229.775" y1="256.626" x2="229.775" y2="285.301" gradientUnits="userSpaceOnUse">
<stop offset="0.18836" stop-color="#9A9A9A"/>
<stop offset="0.51955" stop-color="white"/>
<stop offset="0.81439" stop-color="#A9A9A9"/>
</linearGradient>
<clipPath id="clip0_1450_27218">
<rect width="14.3234" height="17.7337" fill="white" transform="translate(206.47 57.8125)"/>
</clipPath>
<clipPath id="clip1_1450_27218">
<rect width="52.5191" height="17.0517" fill="white" transform="translate(219.43 262.433)"/>
</clipPath>
</defs>
</svg>
