<svg width="30" height="34" viewBox="0 0 30 34" fill="none" xmlns="http://www.w3.org/2000/svg">
<path d="M8.5 10.2427C8.5 7.72277 10.5428 5.67993 13.0628 5.67993H24.1557C26.6756 5.67993 28.7185 7.72278 28.7185 10.2428V21.3356C28.7185 23.8556 26.6756 25.8984 24.1557 25.8984H13.0628C10.5428 25.8984 8.5 23.8556 8.5 21.3356V10.2427Z" fill="url(#paint0_linear_2483_31910)"/>
<g filter="url(#filter0_bi_2483_31910)">
<path d="M1.28125 7.63704C1.28125 5.11706 3.32409 3.07422 5.84407 3.07422H20.5695C23.0895 3.07422 25.1324 5.11706 25.1324 7.63704V22.3625C25.1324 24.8825 23.0895 26.9253 20.5695 26.9253H5.84407C3.32409 26.9253 1.28125 24.8825 1.28125 22.3625V7.63704Z" fill="url(#paint1_linear_2483_31910)"/>
<path d="M1.78125 7.63704C1.78125 5.39321 3.60024 3.57422 5.84407 3.57422H20.5695C22.8134 3.57422 24.6324 5.39321 24.6324 7.63704V22.3625C24.6324 24.6063 22.8134 26.4253 20.5695 26.4253H5.84407C3.60024 26.4253 1.78125 24.6063 1.78125 22.3625V7.63704Z" stroke="url(#paint2_linear_2483_31910)"/>
</g>
<path d="M1.89626 24.6518C2.93821 22.2989 5.74543 18.4988 13.3086 15.1017C20.8426 11.7178 23.5773 7.85389 24.5691 5.43914C23.7927 4.02939 22.2927 3.07422 20.5695 3.07422H5.84407C3.32561 3.07422 1.28371 5.11461 1.28125 7.6325L1.28125 22.3654C1.28178 23.1987 1.50566 23.9797 1.89626 24.6518Z" fill="white" fill-opacity="0.09"/>
<g filter="url(#filter1_d_2483_31910)">
<path fill-rule="evenodd" clip-rule="evenodd" d="M17.2266 21.1401C17.6925 21.1401 17.9255 21.1401 18.1092 21.064C18.3543 20.9625 18.5489 20.7678 18.6504 20.5228C18.7266 20.339 18.7266 20.1061 18.7266 19.6401V10.4133C18.7266 9.94739 18.7266 9.71442 18.6504 9.53065C18.5489 9.28562 18.3543 9.09095 18.1092 8.98945C17.9255 8.91333 17.6925 8.91333 17.2266 8.91334C16.7606 8.91334 16.5276 8.91334 16.3439 8.98946C16.0988 9.09095 15.9042 9.28563 15.8027 9.53065C15.7266 9.71443 15.7266 9.9474 15.7266 10.4133V19.6401C15.7266 20.1061 15.7266 20.339 15.8027 20.5228C15.9042 20.7678 16.0989 20.9625 16.3439 21.064C16.5277 21.1401 16.7606 21.1401 17.2266 21.1401Z" fill="url(#paint3_linear_2483_31910)"/>
<path d="M18.0136 20.833C17.9572 20.8564 17.8834 20.8726 17.7567 20.8812C17.6277 20.89 17.463 20.8901 17.2266 20.8901C16.9902 20.8901 16.8254 20.89 16.6964 20.8812C16.5697 20.8726 16.4959 20.8564 16.4395 20.833C16.2558 20.7569 16.1098 20.6109 16.0337 20.4271C16.0103 20.3708 15.9941 20.297 15.9855 20.1703C15.9767 20.0413 15.9766 19.8765 15.9766 19.6401V10.4133C15.9766 10.1769 15.9767 10.0122 15.9855 9.8832C15.9941 9.75647 16.0103 9.68267 16.0337 9.62633C16.1098 9.44256 16.2558 9.29655 16.4395 9.22043C16.4959 9.19709 16.5697 9.18092 16.6964 9.17227C16.8254 9.16347 16.9902 9.16334 17.2266 9.16334C17.4629 9.16333 17.6277 9.16347 17.7567 9.17227C17.8834 9.18091 17.9572 9.19708 18.0136 9.22042C18.1973 9.29654 18.3434 9.44255 18.4195 9.62632C18.4428 9.68267 18.459 9.75647 18.4676 9.8832C18.4764 10.0122 18.4766 10.1769 18.4766 10.4133V19.6401C18.4766 19.8765 18.4764 20.0413 18.4676 20.1703C18.459 20.297 18.4428 20.3708 18.4195 20.4271C18.3434 20.6109 18.1973 20.7569 18.0136 20.833Z" stroke="white" stroke-opacity="0.14" stroke-width="0.5"/>
</g>
<g filter="url(#filter2_d_2483_31910)">
<path fill-rule="evenodd" clip-rule="evenodd" d="M12.9297 21.1401C13.3956 21.1401 13.6286 21.1401 13.8124 21.064C14.0574 20.9625 14.2521 20.7678 14.3536 20.5228C14.4297 20.339 14.4297 20.1061 14.4297 19.6401V14.0679C14.4297 13.6019 14.4297 13.369 14.3536 13.1852C14.2521 12.9402 14.0574 12.7455 13.8124 12.644C13.6286 12.5679 13.3956 12.5679 12.9297 12.5679C12.4637 12.5679 12.2308 12.5679 12.047 12.644C11.802 12.7455 11.6073 12.9402 11.5058 13.1852C11.4297 13.369 11.4297 13.6019 11.4297 14.0679V19.6401C11.4297 20.1061 11.4297 20.339 11.5058 20.5228C11.6073 20.7678 11.802 20.9625 12.047 21.064C12.2308 21.1401 12.4637 21.1401 12.9297 21.1401Z" fill="url(#paint4_linear_2483_31910)"/>
<path d="M13.7167 20.833C13.6604 20.8564 13.5866 20.8726 13.4598 20.8812C13.3309 20.89 13.1661 20.8901 12.9297 20.8901C12.6933 20.8901 12.5285 20.89 12.3995 20.8812C12.2728 20.8726 12.199 20.8564 12.1427 20.833C11.9589 20.7569 11.8129 20.6109 11.7368 20.4271C11.7134 20.3708 11.6973 20.297 11.6886 20.1703C11.6798 20.0413 11.6797 19.8765 11.6797 19.6401V14.0679C11.6797 13.8315 11.6798 13.6667 11.6886 13.5377C11.6973 13.411 11.7134 13.3372 11.7368 13.2809C11.8129 13.0971 11.9589 12.9511 12.1427 12.875C12.199 12.8516 12.2728 12.8355 12.3995 12.8268C12.5285 12.818 12.6933 12.8179 12.9297 12.8179C13.1661 12.8179 13.3308 12.818 13.4598 12.8268C13.5866 12.8355 13.6604 12.8516 13.7167 12.875C13.9005 12.9511 14.0465 13.0971 14.1226 13.2809C14.1459 13.3372 14.1621 13.411 14.1708 13.5377C14.1796 13.6667 14.1797 13.8315 14.1797 14.0679V19.6401C14.1797 19.8765 14.1796 20.0413 14.1708 20.1703C14.1621 20.297 14.1459 20.3708 14.1226 20.4271C14.0465 20.6109 13.9005 20.7569 13.7167 20.833Z" stroke="white" stroke-opacity="0.14" stroke-width="0.5"/>
</g>
<g filter="url(#filter3_d_2483_31910)">
<path fill-rule="evenodd" clip-rule="evenodd" d="M8.62891 21.1401C9.09485 21.1401 9.32782 21.1401 9.51159 21.064C9.75662 20.9625 9.95129 20.7678 10.0528 20.5228C10.1289 20.339 10.1289 20.1061 10.1289 19.6401V17.4114C10.1289 16.9454 10.1289 16.7125 10.0528 16.5287C9.95129 16.2837 9.75662 16.089 9.51159 15.9875C9.32782 15.9114 9.09485 15.9114 8.6289 15.9114C8.16296 15.9114 7.92999 15.9114 7.74622 15.9875C7.50119 16.089 7.30652 16.2837 7.20503 16.5287C7.12891 16.7125 7.12891 16.9454 7.12891 17.4114V19.6401C7.12891 20.1061 7.12891 20.339 7.20503 20.5228C7.30652 20.7678 7.50119 20.9625 7.74622 21.064C7.92999 21.1401 8.16296 21.1401 8.62891 21.1401Z" fill="url(#paint5_linear_2483_31910)"/>
<path d="M9.41592 20.833C9.35957 20.8564 9.28577 20.8726 9.15904 20.8812C9.03007 20.89 8.8653 20.8901 8.62891 20.8901C8.39251 20.8901 8.22774 20.89 8.09877 20.8812C7.97204 20.8726 7.89824 20.8564 7.84189 20.833C7.65812 20.7569 7.51212 20.6109 7.436 20.4271C7.41266 20.3708 7.39649 20.297 7.38784 20.1703C7.37904 20.0413 7.37891 19.8765 7.37891 19.6401V17.4114C7.37891 17.175 7.37904 17.0102 7.38784 16.8812C7.39649 16.7545 7.41266 16.6807 7.436 16.6244C7.51212 16.4406 7.65812 16.2946 7.84189 16.2185L7.74622 15.9875L7.84189 16.2185C7.89824 16.1951 7.97204 16.179 8.09877 16.1703C8.22774 16.1615 8.39251 16.1614 8.6289 16.1614C8.8653 16.1614 9.03007 16.1615 9.15904 16.1703C9.28577 16.179 9.35957 16.1951 9.41592 16.2185C9.59969 16.2946 9.7457 16.4406 9.82182 16.6244C9.84516 16.6807 9.86132 16.7545 9.86997 16.8812C9.87877 17.0102 9.87891 17.175 9.87891 17.4114V19.6401C9.87891 19.8765 9.87877 20.0413 9.86997 20.1703C9.86132 20.297 9.84516 20.3708 9.82182 20.4271C9.7457 20.6109 9.59969 20.7569 9.41592 20.833Z" stroke="white" stroke-opacity="0.14" stroke-width="0.5"/>
</g>
<defs>
<filter id="filter0_bi_2483_31910" x="-10.7188" y="-8.92578" width="47.8516" height="47.8511" filterUnits="userSpaceOnUse" color-interpolation-filters="sRGB">
<feFlood flood-opacity="0" result="BackgroundImageFix"/>
<feGaussianBlur in="BackgroundImageFix" stdDeviation="6"/>
<feComposite in2="SourceAlpha" operator="in" result="effect1_backgroundBlur_2483_31910"/>
<feBlend mode="normal" in="SourceGraphic" in2="effect1_backgroundBlur_2483_31910" result="shape"/>
<feColorMatrix in="SourceAlpha" type="matrix" values="0 0 0 0 0 0 0 0 0 0 0 0 0 0 0 0 0 0 127 0" result="hardAlpha"/>
<feOffset/>
<feGaussianBlur stdDeviation="2"/>
<feComposite in2="hardAlpha" operator="arithmetic" k2="-1" k3="1"/>
<feColorMatrix type="matrix" values="0 0 0 0 1 0 0 0 0 1 0 0 0 0 1 0 0 0 0.63 0"/>
<feBlend mode="normal" in2="shape" result="effect2_innerShadow_2483_31910"/>
</filter>
<filter id="filter1_d_2483_31910" x="9.72656" y="8.91333" width="15" height="24.2268" filterUnits="userSpaceOnUse" color-interpolation-filters="sRGB">
<feFlood flood-opacity="0" result="BackgroundImageFix"/>
<feColorMatrix in="SourceAlpha" type="matrix" values="0 0 0 0 0 0 0 0 0 0 0 0 0 0 0 0 0 0 127 0" result="hardAlpha"/>
<feOffset dy="6"/>
<feGaussianBlur stdDeviation="3"/>
<feComposite in2="hardAlpha" operator="out"/>
<feColorMatrix type="matrix" values="0 0 0 0 0.294118 0 0 0 0 0.822118 0 0 0 0 0.894118 0 0 0 0.27 0"/>
<feBlend mode="normal" in2="BackgroundImageFix" result="effect1_dropShadow_2483_31910"/>
<feBlend mode="normal" in="SourceGraphic" in2="effect1_dropShadow_2483_31910" result="shape"/>
</filter>
<filter id="filter2_d_2483_31910" x="5.42969" y="12.5679" width="15" height="20.5723" filterUnits="userSpaceOnUse" color-interpolation-filters="sRGB">
<feFlood flood-opacity="0" result="BackgroundImageFix"/>
<feColorMatrix in="SourceAlpha" type="matrix" values="0 0 0 0 0 0 0 0 0 0 0 0 0 0 0 0 0 0 127 0" result="hardAlpha"/>
<feOffset dy="6"/>
<feGaussianBlur stdDeviation="3"/>
<feComposite in2="hardAlpha" operator="out"/>
<feColorMatrix type="matrix" values="0 0 0 0 0.294118 0 0 0 0 0.822118 0 0 0 0 0.894118 0 0 0 0.27 0"/>
<feBlend mode="normal" in2="BackgroundImageFix" result="effect1_dropShadow_2483_31910"/>
<feBlend mode="normal" in="SourceGraphic" in2="effect1_dropShadow_2483_31910" result="shape"/>
</filter>
<filter id="filter3_d_2483_31910" x="1.12891" y="15.9114" width="15" height="17.2288" filterUnits="userSpaceOnUse" color-interpolation-filters="sRGB">
<feFlood flood-opacity="0" result="BackgroundImageFix"/>
<feColorMatrix in="SourceAlpha" type="matrix" values="0 0 0 0 0 0 0 0 0 0 0 0 0 0 0 0 0 0 127 0" result="hardAlpha"/>
<feOffset dy="6"/>
<feGaussianBlur stdDeviation="3"/>
<feComposite in2="hardAlpha" operator="out"/>
<feColorMatrix type="matrix" values="0 0 0 0 0.294118 0 0 0 0 0.822118 0 0 0 0 0.894118 0 0 0 0.27 0"/>
<feBlend mode="normal" in2="BackgroundImageFix" result="effect1_dropShadow_2483_31910"/>
<feBlend mode="normal" in="SourceGraphic" in2="effect1_dropShadow_2483_31910" result="shape"/>
</filter>
<linearGradient id="paint0_linear_2483_31910" x1="5.62409" y1="15.7892" x2="32.0757" y2="15.7892" gradientUnits="userSpaceOnUse">
<stop stop-color="#013A7D"/>
<stop offset="1" stop-color="#025BBF"/>
</linearGradient>
<linearGradient id="paint1_linear_2483_31910" x1="13.2068" y1="3.07422" x2="13.2068" y2="27.4759" gradientUnits="userSpaceOnUse">
<stop stop-color="#BEE8FF" stop-opacity="0.42"/>
<stop offset="1" stop-color="#4BBEFF" stop-opacity="0.49"/>
</linearGradient>
<linearGradient id="paint2_linear_2483_31910" x1="6.18703" y1="7.43323" x2="18.852" y2="29.3028" gradientUnits="userSpaceOnUse">
<stop offset="0.331091" stop-color="white" stop-opacity="0.26"/>
<stop offset="1" stop-color="#4B88E4" stop-opacity="0.16"/>
</linearGradient>
<linearGradient id="paint3_linear_2483_31910" x1="18.3319" y1="24.3876" x2="17.9268" y2="6.73608" gradientUnits="userSpaceOnUse">
<stop stop-color="#C7D9FC"/>
<stop offset="1" stop-color="#FCFEFF"/>
</linearGradient>
<linearGradient id="paint4_linear_2483_31910" x1="14.0351" y1="23.417" x2="13.8359" y2="11.0381" gradientUnits="userSpaceOnUse">
<stop stop-color="#C7D9FC"/>
<stop offset="1" stop-color="#FCFEFF"/>
</linearGradient>
<linearGradient id="paint5_linear_2483_31910" x1="9.73429" y1="22.5289" x2="9.66017" y2="14.977" gradientUnits="userSpaceOnUse">
<stop stop-color="#C7D9FC"/>
<stop offset="1" stop-color="#FCFEFF"/>
</linearGradient>
</defs>
</svg>
