<svg width="396" height="378" viewBox="0 0 396 378" fill="none" xmlns="http://www.w3.org/2000/svg">
<g filter="url(#filter0_d_1426_26111)">
<path d="M188.031 263.555V263.558H285.739V263.555C285.944 263.557 286.151 263.558 286.357 263.558C324.267 263.558 355 233.049 355 195.414C355 157.779 324.267 127.269 286.357 127.269C253.763 127.269 226.474 149.822 219.462 180.066H218.042C209.778 173.198 199.131 169.064 187.511 169.064C161.227 169.064 139.919 190.218 139.919 216.311C139.919 242.405 161.227 263.558 187.511 263.558C187.685 263.558 187.858 263.557 188.031 263.555Z" fill="url(#paint0_linear_1426_26111)"/>
<path d="M207.969 213.541V213.544H110.261V213.541C110.056 213.543 109.849 213.544 109.643 213.544C71.7325 213.544 41 183.034 41 145.399C41 107.764 71.7325 77.2545 109.643 77.2545C142.237 77.2545 169.526 99.8072 176.538 130.051H177.958C186.222 123.184 196.869 119.05 208.489 119.05C234.773 119.05 256.081 140.203 256.081 166.297C256.081 192.39 234.773 213.544 208.489 213.544C208.315 213.544 208.142 213.543 207.969 213.541Z" fill="url(#paint1_linear_1426_26111)"/>
<g filter="url(#filter1_bi_1426_26111)">
<path d="M241.216 114.402L223.658 107.57L234.488 97.5864C248.782 81.4434 256.853 60.2563 256.853 38.7335C256.853 34.0247 253.154 30.3259 248.445 30.3259C247.267 30.3259 243.905 26.626 242.056 24.6082C237.515 19.7323 231.967 13.5107 223.223 13.5107C214.478 13.5107 208.93 19.7323 204.39 24.6082C202.541 26.626 199.178 30.3259 198 30.3259C196.822 30.3259 193.459 26.626 191.61 24.6082C187.07 19.7323 181.522 13.5107 172.777 13.5107C164.202 13.5107 158.82 19.3955 153.608 25.1132C151.758 26.9629 148.733 30.3259 147.555 30.3259C142.846 30.3259 139.147 34.0247 139.147 38.7335C139.147 60.2563 147.218 81.4434 161.512 97.5864L189.157 107.57L154.784 114.402C128.722 135.084 88.7017 175.72 88.7017 224.821C88.7017 292.585 151.085 300.489 198 300.489C244.915 300.489 307.298 292.585 307.298 224.821C307.298 175.72 267.278 135.084 241.216 114.402Z" fill="url(#paint2_linear_1426_26111)"/>
<path d="M223.319 107.202L222.73 107.745L223.476 108.036L240.964 114.84C253.963 125.162 270.415 140.44 283.622 159.242C296.849 178.073 306.798 200.408 306.798 224.821C306.798 241.683 302.919 254.786 296.397 264.962C289.875 275.14 280.689 282.426 270.023 287.617C248.673 298.01 221.448 299.989 198 299.989C174.552 299.989 147.327 298.01 125.977 287.617C115.311 282.426 106.125 275.14 99.6031 264.962C93.0815 254.786 89.2017 241.683 89.2017 224.821C89.2017 200.408 99.1513 178.073 112.379 159.242C125.573 140.457 142.007 125.19 155 114.868L189.254 108.06L191.017 107.71L189.327 107.099L161.802 97.1596C147.641 81.1193 139.647 60.0911 139.647 38.7335C139.647 34.3008 143.122 30.8259 147.555 30.8259C147.81 30.8259 148.066 30.7379 148.294 30.6285C148.529 30.5157 148.777 30.3591 149.03 30.1773C149.535 29.8138 150.1 29.3178 150.673 28.7766C151.424 28.0673 152.22 27.2483 152.935 26.5132C153.305 26.133 153.653 25.7752 153.962 25.4667L153.97 25.4586L153.978 25.45C159.216 19.7026 164.455 14.0107 172.777 14.0107C181.069 14.0107 186.416 19.7583 190.92 24.6C191.028 24.7163 191.136 24.8321 191.243 24.9473C191.243 24.9478 191.244 24.9484 191.244 24.9489L191.371 25.0866C192.283 26.083 193.534 27.4478 194.709 28.5834C195.325 29.1776 195.931 29.7204 196.467 30.1177C196.734 30.3162 196.995 30.4866 197.238 30.6094C197.471 30.7271 197.736 30.8259 198 30.8259C198.264 30.8259 198.529 30.7271 198.762 30.6094C199.006 30.4866 199.266 30.3162 199.533 30.1177C200.069 29.7204 200.675 29.1776 201.291 28.5834C202.467 27.4478 203.717 26.083 204.63 25.0866L204.756 24.9489C204.756 24.9484 204.757 24.9478 204.757 24.9473C204.865 24.8321 204.972 24.7163 205.08 24.6C209.584 19.7583 214.931 14.0107 223.223 14.0107C231.514 14.0107 236.861 19.7583 241.365 24.6C241.474 24.7165 241.581 24.8325 241.689 24.9478C241.689 24.9482 241.689 24.9486 241.69 24.9489L241.815 25.0859C242.728 26.0823 243.979 27.4476 245.155 28.5834C245.77 29.1776 246.377 29.7204 246.912 30.1177C247.179 30.3162 247.44 30.4866 247.683 30.6094C247.917 30.7271 248.182 30.8259 248.445 30.8259C252.878 30.8259 256.353 34.3008 256.353 38.7335C256.353 60.125 248.334 81.1862 234.13 97.236L223.319 107.202Z" stroke="url(#paint3_linear_1426_26111)"/>
</g>
<path d="M162.548 98.0853H234.488H248.446C253.431 98.0853 257.354 94.1615 257.354 89.1777C257.354 84.7451 260.829 81.2701 265.261 81.2701C269.694 81.2701 273.169 84.7451 273.169 89.1777C273.169 102.858 262.128 113.9 248.446 113.9H241.217H156.219C160.351 110.647 164.107 107.968 167.201 105.761C167.539 105.52 167.869 105.284 168.191 105.054L168.656 104.722L168.265 104.305C167.396 103.38 166.683 102.627 166.079 101.989C164.386 100.203 163.549 99.3189 162.548 98.0853Z" fill="url(#paint4_linear_1426_26111)" stroke="url(#paint5_linear_1426_26111)"/>
<path d="M180.107 234.981C180.452 234.981 180.797 234.882 181.142 234.783L190.998 231.235V239.416C190.998 245.527 194.694 248.385 199.721 248.385C204.797 248.385 208.493 245.527 208.493 239.416V224.976L219.976 220.886C221.109 220.492 221.701 219.605 221.701 218.57C221.701 217.338 220.715 216.352 219.483 216.352C219.138 216.352 218.744 216.451 218.399 216.549L208.493 220.098V211.424L219.976 207.284C221.109 206.89 221.701 206.003 221.701 204.968C221.701 203.785 220.715 202.75 219.483 202.75C219.138 202.75 218.744 202.849 218.399 202.948L208.493 206.496V192.796H223.82C228.009 192.796 231.064 189.937 231.064 185.748C231.064 181.559 228.009 178.701 223.82 178.701H175.672C171.433 178.701 168.427 181.51 168.427 185.748C168.427 189.987 171.433 192.796 175.672 192.796H190.998V212.755L179.565 216.845C178.481 217.239 177.889 218.126 177.889 219.161C177.889 220.393 178.875 221.379 180.107 221.379C180.452 221.379 180.797 221.28 181.142 221.182L190.998 217.633V226.356L179.565 230.447C178.481 230.841 177.889 231.679 177.889 232.763C177.889 233.946 178.875 234.981 180.107 234.981Z" fill="url(#paint6_linear_1426_26111)"/>
</g>
<defs>
<filter id="filter0_d_1426_26111" x="0" y="-5" width="396" height="396" filterUnits="userSpaceOnUse" color-interpolation-filters="sRGB">
<feFlood flood-opacity="0" result="BackgroundImageFix"/>
<feColorMatrix in="SourceAlpha" type="matrix" values="0 0 0 0 0 0 0 0 0 0 0 0 0 0 0 0 0 0 127 0" result="hardAlpha"/>
<feOffset dy="36"/>
<feGaussianBlur stdDeviation="20.5"/>
<feComposite in2="hardAlpha" operator="out"/>
<feColorMatrix type="matrix" values="0 0 0 0 0.294118 0 0 0 0 0.570118 0 0 0 0 0.894118 0 0 0 0.17 0"/>
<feBlend mode="normal" in2="BackgroundImageFix" result="effect1_dropShadow_1426_26111"/>
<feBlend mode="normal" in="SourceGraphic" in2="effect1_dropShadow_1426_26111" result="shape"/>
</filter>
<filter id="filter1_bi_1426_26111" x="76.7017" y="1.51074" width="242.597" height="310.978" filterUnits="userSpaceOnUse" color-interpolation-filters="sRGB">
<feFlood flood-opacity="0" result="BackgroundImageFix"/>
<feGaussianBlur in="BackgroundImageFix" stdDeviation="6"/>
<feComposite in2="SourceAlpha" operator="in" result="effect1_backgroundBlur_1426_26111"/>
<feBlend mode="normal" in="SourceGraphic" in2="effect1_backgroundBlur_1426_26111" result="shape"/>
<feColorMatrix in="SourceAlpha" type="matrix" values="0 0 0 0 0 0 0 0 0 0 0 0 0 0 0 0 0 0 127 0" result="hardAlpha"/>
<feOffset/>
<feGaussianBlur stdDeviation="2"/>
<feComposite in2="hardAlpha" operator="arithmetic" k2="-1" k3="1"/>
<feColorMatrix type="matrix" values="0 0 0 0 1 0 0 0 0 1 0 0 0 0 1 0 0 0 0.64 0"/>
<feBlend mode="normal" in2="shape" result="effect2_innerShadow_1426_26111"/>
</filter>
<linearGradient id="paint0_linear_1426_26111" x1="385.593" y1="195.414" x2="104.206" y2="195.414" gradientUnits="userSpaceOnUse">
<stop stop-color="#255DBE"/>
<stop offset="1" stop-color="#5A9BF8"/>
</linearGradient>
<linearGradient id="paint1_linear_1426_26111" x1="10.4066" y1="145.399" x2="291.794" y2="145.399" gradientUnits="userSpaceOnUse">
<stop stop-color="#255DBE"/>
<stop offset="1" stop-color="#5A9BF8"/>
</linearGradient>
<linearGradient id="paint2_linear_1426_26111" x1="301.741" y1="296.217" x2="32.111" y2="90.9711" gradientUnits="userSpaceOnUse">
<stop stop-color="#4B88E4" stop-opacity="0.42"/>
<stop offset="1" stop-color="#00B2FF" stop-opacity="0.49"/>
</linearGradient>
<linearGradient id="paint3_linear_1426_26111" x1="198" y1="13.5107" x2="198" y2="300.489" gradientUnits="userSpaceOnUse">
<stop offset="0.442708" stop-color="white" stop-opacity="0.26"/>
<stop offset="1" stop-color="#4BC8E4" stop-opacity="0.26"/>
</linearGradient>
<linearGradient id="paint4_linear_1426_26111" x1="126.788" y1="131.779" x2="273.668" y2="128.361" gradientUnits="userSpaceOnUse">
<stop offset="0.260417" stop-color="white"/>
<stop offset="1" stop-color="#D7E4FD"/>
</linearGradient>
<linearGradient id="paint5_linear_1426_26111" x1="270.248" y1="247.523" x2="43.9856" y2="210.574" gradientUnits="userSpaceOnUse">
<stop stop-color="white" stop-opacity="0.42"/>
<stop offset="1" stop-color="#EAF6FF"/>
<stop offset="1" stop-color="#D0E0FF" stop-opacity="0.49"/>
</linearGradient>
<linearGradient id="paint6_linear_1426_26111" x1="160.593" y1="175.594" x2="266.234" y2="269.333" gradientUnits="userSpaceOnUse">
<stop stop-color="white"/>
<stop offset="1" stop-color="#A8CBFF"/>
</linearGradient>
</defs>
</svg>
