<svg width="70" height="70" viewBox="0 0 70 70" fill="none" xmlns="http://www.w3.org/2000/svg">
<g clip-path="url(#clip0_6563_16863)">
<path d="M58.7891 34.2955V55.6406C58.7891 59.0385 56.0346 61.793 52.6367 61.793H19.2157L10.2214 69.5024C8.89109 70.6426 6.83594 69.6974 6.83594 67.9453V61.793H6.15234C2.75447 61.793 0 59.0385 0 55.6406V31.0312C0 27.6334 2.75447 24.8789 6.15234 24.8789H35.9317H52.7891C56.1028 24.8789 58.7891 27.5652 58.7891 30.8789V34.2955Z" fill="url(#paint0_linear_6563_16863)"/>
<rect x="9.30469" y="39" width="4" height="24" rx="2" transform="rotate(-90 9.30469 39)" fill="url(#paint1_linear_6563_16863)"/>
<rect x="9.80469" y="38.5" width="3" height="23" rx="1.5" transform="rotate(-90 9.80469 38.5)" stroke="white" stroke-opacity="0.14"/>
<rect x="9.30469" y="49.6641" width="4" height="34" rx="2" transform="rotate(-90 9.30469 49.6641)" fill="url(#paint2_linear_6563_16863)"/>
<rect x="9.80469" y="49.1641" width="3" height="33" rx="1.5" transform="rotate(-90 9.80469 49.1641)" stroke="white" stroke-opacity="0.14"/>
<g filter="url(#filter0_bi_6563_16863)">
<path d="M70 19.7412C70 29.5572 62.0426 37.5146 52.2266 37.5146C42.4106 37.5146 34.4531 29.5572 34.4531 19.7412C34.4531 9.92521 42.4106 1.96777 52.2266 1.96777C62.0426 1.96777 70 9.92521 70 19.7412Z" fill="url(#paint3_linear_6563_16863)"/>
<path d="M69.5 19.7412C69.5 29.2811 61.7664 37.0146 52.2266 37.0146C42.6867 37.0146 34.9531 29.2811 34.9531 19.7412C34.9531 10.2014 42.6867 2.46777 52.2266 2.46777C61.7664 2.46777 69.5 10.2014 69.5 19.7412Z" stroke="url(#paint4_linear_6563_16863)"/>
</g>
<g filter="url(#filter1_d_6563_16863)">
<circle cx="3.5" cy="3.5" r="3.5" transform="matrix(1 0 0 -1 48.7266 14.4131)" fill="url(#paint5_linear_6563_16863)"/>
<circle cx="3.5" cy="3.5" r="3" transform="matrix(1 0 0 -1 48.7266 14.4131)" stroke="white" stroke-opacity="0.14"/>
</g>
<rect x="48.7266" y="17.4131" width="7" height="15" rx="3.5" fill="url(#paint6_linear_6563_16863)"/>
<rect x="49.2266" y="17.9131" width="6" height="14" rx="3" stroke="white" stroke-opacity="0.14"/>
</g>
<defs>
<filter id="filter0_bi_6563_16863" x="22.4531" y="-10.0322" width="59.5469" height="59.5469" filterUnits="userSpaceOnUse" color-interpolation-filters="sRGB">
<feFlood flood-opacity="0" result="BackgroundImageFix"/>
<feGaussianBlur in="BackgroundImageFix" stdDeviation="6"/>
<feComposite in2="SourceAlpha" operator="in" result="effect1_backgroundBlur_6563_16863"/>
<feBlend mode="normal" in="SourceGraphic" in2="effect1_backgroundBlur_6563_16863" result="shape"/>
<feColorMatrix in="SourceAlpha" type="matrix" values="0 0 0 0 0 0 0 0 0 0 0 0 0 0 0 0 0 0 127 0" result="hardAlpha"/>
<feOffset/>
<feGaussianBlur stdDeviation="2"/>
<feComposite in2="hardAlpha" operator="arithmetic" k2="-1" k3="1"/>
<feColorMatrix type="matrix" values="0 0 0 0 1 0 0 0 0 1 0 0 0 0 1 0 0 0 0.64 0"/>
<feBlend mode="normal" in2="shape" result="effect2_innerShadow_6563_16863"/>
</filter>
<filter id="filter1_d_6563_16863" x="42.7266" y="7.41309" width="19" height="19" filterUnits="userSpaceOnUse" color-interpolation-filters="sRGB">
<feFlood flood-opacity="0" result="BackgroundImageFix"/>
<feColorMatrix in="SourceAlpha" type="matrix" values="0 0 0 0 0 0 0 0 0 0 0 0 0 0 0 0 0 0 127 0" result="hardAlpha"/>
<feOffset dy="6"/>
<feGaussianBlur stdDeviation="3"/>
<feComposite in2="hardAlpha" operator="out"/>
<feColorMatrix type="matrix" values="0 0 0 0 0.294118 0 0 0 0 0.678118 0 0 0 0 0.894118 0 0 0 0.27 0"/>
<feBlend mode="normal" in2="BackgroundImageFix" result="effect1_dropShadow_6563_16863"/>
<feBlend mode="normal" in="SourceGraphic" in2="effect1_dropShadow_6563_16863" result="shape"/>
</filter>
<linearGradient id="paint0_linear_6563_16863" x1="-8.36224" y1="47.4395" x2="68.5507" y2="47.4395" gradientUnits="userSpaceOnUse">
<stop stop-color="#255DBE"/>
<stop offset="1" stop-color="#5A9BF8"/>
</linearGradient>
<linearGradient id="paint1_linear_6563_16863" x1="11.3047" y1="39" x2="11.3047" y2="63" gradientUnits="userSpaceOnUse">
<stop stop-color="#DAE6FE"/>
<stop offset="1" stop-color="#EDF4FF"/>
</linearGradient>
<linearGradient id="paint2_linear_6563_16863" x1="11.3047" y1="49.6641" x2="11.3047" y2="83.6641" gradientUnits="userSpaceOnUse">
<stop stop-color="#DAE6FE"/>
<stop offset="1" stop-color="#EDF4FF"/>
</linearGradient>
<linearGradient id="paint3_linear_6563_16863" x1="69.0963" y1="36.9855" x2="34.4474" y2="2.35964" gradientUnits="userSpaceOnUse">
<stop stop-color="#4B88E4" stop-opacity="0.42"/>
<stop offset="1" stop-color="#EAF6FF"/>
<stop offset="1" stop-color="#00B2FF" stop-opacity="0.49"/>
</linearGradient>
<linearGradient id="paint4_linear_6563_16863" x1="52.2266" y1="1.96777" x2="52.2266" y2="37.5146" gradientUnits="userSpaceOnUse">
<stop offset="0.442708" stop-color="white" stop-opacity="0.26"/>
<stop offset="1" stop-color="#4BC8E4" stop-opacity="0.26"/>
</linearGradient>
<linearGradient id="paint5_linear_6563_16863" x1="-0.180448" y1="5.06537" x2="7.26574" y2="5.02758" gradientUnits="userSpaceOnUse">
<stop stop-color="#C7D9FC"/>
<stop offset="1" stop-color="#FCFEFF"/>
</linearGradient>
<linearGradient id="paint6_linear_6563_16863" x1="52.2266" y1="17.4131" x2="52.2266" y2="32.4131" gradientUnits="userSpaceOnUse">
<stop stop-color="#DAE6FE"/>
<stop offset="1" stop-color="#EDF4FF"/>
</linearGradient>
<clipPath id="clip0_6563_16863">
<rect width="70" height="70" fill="white"/>
</clipPath>
</defs>
</svg>
