<svg width="60" height="61" viewBox="0 0 60 61" fill="none" xmlns="http://www.w3.org/2000/svg">
<path d="M40 25.873V24.8184C40 23.6102 39.0206 22.6309 37.8125 22.6309H22.1875C20.9794 22.6309 20 23.6102 20 24.8184V25.873C20 25.9809 20.0875 26.0684 20.1953 26.0684H39.8047C39.9125 26.0684 40 25.9809 40 25.873Z" fill="#B3C4D8"/>
<path d="M20 27.5137V36.0115C20 37.2197 20.9794 38.199 22.1875 38.199H37.8125C39.0206 38.199 40 37.2197 40 36.0115V27.5137C40 27.4058 39.9125 27.3184 39.8047 27.3184H20.1953C20.0875 27.3184 20 27.4058 20 27.5137ZM25 32.6309C25 32.976 24.7202 33.2559 24.375 33.2559H23.75C23.4048 33.2559 23.125 32.976 23.125 32.6309V32.0059C23.125 31.6607 23.4048 31.3809 23.75 31.3809H24.375C24.7202 31.3809 25 31.6607 25 32.0059V32.6309Z" fill="#B3C4D8"/>
</svg>
