<svg width="20" height="20" viewBox="0 0 20 20" fill="none" xmlns="http://www.w3.org/2000/svg">
<path d="M2.38073 2.39654L12.8557 0.900707C12.9149 0.892224 12.9751 0.896557 13.0324 0.913399C13.0897 0.93024 13.1427 0.959199 13.1878 0.998315C13.233 1.03744 13.2691 1.0858 13.294 1.14013C13.3187 1.19446 13.3315 1.25348 13.3315 1.31321V18.6849C13.3315 18.7445 13.3187 18.8035 13.294 18.8577C13.2692 18.912 13.2331 18.9603 13.1881 18.9994C13.143 19.0385 13.0901 19.0675 13.033 19.0844C12.9758 19.1013 12.9156 19.1057 12.8565 19.0974L2.3799 17.6016C2.18125 17.5732 1.99948 17.4742 1.86797 17.3226C1.73647 17.1712 1.66407 16.9772 1.66406 16.7766V3.22154C1.66407 3.02088 1.73647 2.82697 1.86797 2.67541C1.99948 2.52386 2.18125 2.42483 2.3799 2.39654H2.38073ZM14.1649 2.49904H17.4982C17.7192 2.49904 17.9312 2.58684 18.0875 2.74312C18.2438 2.8994 18.3315 3.11136 18.3315 3.33237V16.6657C18.3315 16.8867 18.2438 17.0986 18.0875 17.255C17.9312 17.4112 17.7192 17.4991 17.4982 17.4991H14.1649V2.49904ZM8.49821 9.99907L10.8315 6.66571H8.83155L7.49823 8.57073L6.1649 6.66571H4.1649L6.49823 9.99907L4.1649 13.3324H6.1649L7.49823 11.4274L8.83155 13.3324H10.8315L8.49821 9.99907Z" fill="#4D5B6D"/>
</svg>
