<svg width="60" height="61" viewBox="0 0 60 61" fill="none" xmlns="http://www.w3.org/2000/svg">
<g clip-path="url(#clip0_1350_19638)">
<path d="M39.8277 25.2529L35.4345 20.8597C35.2163 20.6327 34.824 20.6327 34.6059 20.8597L30.2126 25.2529C30.0451 25.4205 29.995 25.6725 30.0856 25.8914C30.1763 26.1104 30.39 26.2532 30.6269 26.2532H32.5514V40.1021C32.5514 40.4257 32.8138 40.688 33.1374 40.688H36.903C37.2266 40.688 37.4889 40.4257 37.4889 40.1021V26.2532H39.4134C39.6504 26.2532 39.8641 26.1104 39.9548 25.8914C40.0454 25.6725 39.9953 25.4205 39.8277 25.2529Z" fill="#B3C4D8"/>
<path d="M30.627 28.8477H26.8613C26.5377 28.8477 26.2754 29.11 26.2754 29.4336V40.1029C26.2754 40.4264 26.5377 40.6888 26.8613 40.6888H30.627C30.9505 40.6888 31.2129 40.4264 31.2129 40.1029V29.4336C31.2129 29.11 30.9505 28.8477 30.627 28.8477Z" fill="#B3C4D8"/>
<path d="M24.3516 33.8672H20.5859C20.2623 33.8672 20 34.1295 20 34.4531V40.1016C20 40.4252 20.2623 40.6875 20.5859 40.6875H24.3516C24.6752 40.6875 24.9375 40.4252 24.9375 40.1016V34.4531C24.9375 34.1295 24.6752 33.8672 24.3516 33.8672Z" fill="#B3C4D8"/>
</g>
<defs>
<clipPath id="clip0_1350_19638">
<rect width="20" height="20" fill="white" transform="translate(20 20.6895)"/>
</clipPath>
</defs>
</svg>
