<svg width="60" height="61" viewBox="0 0 60 61" fill="none" xmlns="http://www.w3.org/2000/svg">
<g clip-path="url(#clip0_5635_203)">
<path d="M39.4608 29.1365C39.4603 29.1361 39.4599 29.1356 39.4594 29.1352L31.301 20.9771C30.9532 20.6292 30.4909 20.4375 29.9991 20.4375C29.5073 20.4375 29.045 20.629 28.6971 20.9769L20.5429 29.1309C20.5402 29.1336 20.5374 29.1365 20.5347 29.1393C19.8206 29.8575 19.8218 31.0228 20.5382 31.7392C20.8655 32.0667 21.2978 32.2563 21.76 32.2762C21.7787 32.278 21.7977 32.2789 21.8167 32.2789H22.1419V38.2828C22.1419 39.4709 23.1085 40.4375 24.2969 40.4375H27.4887C27.8122 40.4375 28.0747 40.1752 28.0747 39.8516V35.1445C28.0747 34.6024 28.5156 34.1614 29.0578 34.1614H30.9404C31.4826 34.1614 31.9235 34.6024 31.9235 35.1445V39.8516C31.9235 40.1752 32.1858 40.4375 32.5095 40.4375H35.7013C36.8897 40.4375 37.8563 39.4709 37.8563 38.2828V32.2789H38.1578C38.6495 32.2789 39.1118 32.0874 39.4599 31.7395C40.177 31.0219 40.1773 29.8546 39.4608 29.1365Z" fill="#B3C4D8"/>
</g>
<defs>
<clipPath id="clip0_5635_203">
<rect width="20" height="20" fill="white" transform="translate(20 20.4375)"/>
</clipPath>
</defs>
</svg>
