<svg width="76" height="85" viewBox="0 0 76 85" fill="none" xmlns="http://www.w3.org/2000/svg">
<g filter="url(#filter0_bd_5635_241)">
<path fill-rule="evenodd" clip-rule="evenodd" d="M60.3069 13.883H60.3069L53.4885 10.1738C53.5003 10.174 53.5121 10.1752 53.5237 10.1776L60.3421 13.8867C60.3305 13.8844 60.3188 13.8832 60.3069 13.883ZM60.2363 13.8911L60.2365 13.8912H60.2365C60.2595 13.8856 60.283 13.8828 60.3067 13.883L53.4882 10.1738C53.4648 10.1737 53.4415 10.1764 53.4188 10.1819L53.4185 10.1818C53.4004 10.1861 53.3826 10.1915 53.3652 10.1982L60.1837 13.9073H60.1837C60.2009 13.9008 60.2184 13.8954 60.2363 13.8911ZM53.5237 10.1773L60.3421 13.8865C60.3472 13.8876 60.3522 13.8888 60.3571 13.8904L60.3598 13.8918V13.8918C60.3642 13.8933 60.3686 13.895 60.3729 13.897L53.5544 10.1878C53.5514 10.1864 53.5483 10.1851 53.5451 10.184L53.5419 10.1822C53.536 10.1802 53.5299 10.1786 53.5237 10.1773ZM53.5554 10.1879L60.3738 13.8971L60.3817 13.901L53.5632 10.1918L53.5554 10.1879Z" fill="url(#paint0_linear_5635_241)" shape-rendering="crispEdges"/>
</g>
<g filter="url(#filter1_bd_5635_241)">
<path fill-rule="evenodd" clip-rule="evenodd" d="M55.8564 17.9345C57.2624 16.5485 58.7053 15.2064 60.1853 13.9084L53.3668 10.1992C51.8863 11.4981 50.4433 12.8402 49.038 14.2254L49.0383 14.2256C47.6151 15.6286 46.2324 17.0732 44.8901 18.5593L44.8902 18.5593C43.5536 20.0394 42.259 21.5578 41.0064 23.1148L47.8249 26.824C49.0782 25.2661 50.3728 23.7475 51.7088 22.2683L51.7088 22.2683C53.0516 20.7813 54.4343 19.3368 55.8568 17.9347L55.8564 17.9345ZM37.3339 27.956L37.3346 27.9564C36.1202 29.6568 34.9557 31.393 33.841 33.1652L40.6595 36.8744C41.775 35.1011 42.9396 33.3647 44.1534 31.6651L44.1527 31.6648C45.332 30.0135 46.5557 28.3998 47.8237 26.8237L41.0053 23.1145C39.7365 24.6917 38.5127 26.3055 37.3339 27.956ZM30.4925 38.8697L30.4939 38.8705C29.3491 40.9666 28.2747 43.1007 27.2707 45.2729L34.0892 48.982C35.0944 46.8081 36.169 44.6736 37.3129 42.5787L37.3115 42.5779C38.3703 40.6394 39.4858 38.7383 40.6581 36.8746L33.8396 33.1654C32.6663 35.0306 31.5506 36.932 30.4925 38.8697ZM24.2285 52.5437L31.047 56.2529C31.9732 53.7872 32.9868 51.3635 34.0877 48.9817L27.2692 45.2726C26.1669 47.6562 25.1534 50.08 24.2285 52.5437Z" fill="url(#paint1_linear_5635_241)" shape-rendering="crispEdges"/>
</g>
<g filter="url(#filter2_bd_5635_241)">
<path d="M30.4427 66.0158L23.6243 62.3066C23.3813 62.1743 23.1527 62.0173 22.942 61.838C22.2162 61.2074 21.7073 60.3643 21.4875 59.4283C19.9384 52.6951 17.289 46.2636 13.646 40.393C13.6073 40.3306 13.582 40.2608 13.5717 40.1881C13.5614 40.1154 13.5662 40.0414 13.586 39.9707L20.4044 43.6799C20.3847 43.7506 20.3798 43.8246 20.3901 43.8973C20.4005 43.97 20.4258 44.0397 20.4644 44.1021C24.1075 49.9728 26.7569 56.4042 28.3059 63.1374C28.5257 64.0735 29.0346 64.9166 29.7604 65.5472C29.9711 65.7264 30.1998 65.8835 30.4427 66.0158Z" fill="url(#paint2_linear_5635_241)" shape-rendering="crispEdges"/>
<path d="M28.7873 64.8307L23.7438 62.0871C23.5164 61.9632 23.3023 61.8162 23.1049 61.6484C22.4194 61.0524 21.9387 60.2559 21.731 59.3716C20.1946 52.6937 17.5801 46.3114 13.9909 40.4755L20.1349 43.8178C20.1346 43.8561 20.1372 43.8944 20.1426 43.9325C20.1578 44.0394 20.195 44.142 20.2519 44.2338L20.252 44.234C23.8805 50.0812 26.5194 56.4871 28.0623 63.1935L28.0626 63.1946C28.2009 63.7838 28.4479 64.3381 28.7873 64.8307ZM13.7362 40.337L13.646 40.393L13.7362 40.337L13.7362 40.337Z" stroke="url(#paint3_radial_5635_241)" stroke-width="0.5" shape-rendering="crispEdges"/>
</g>
<g filter="url(#filter3_bd_5635_241)">
<path fill-rule="evenodd" clip-rule="evenodd" d="M14.0172 39.5181L14.0171 39.5181C14.0286 39.5154 14.0403 39.5133 14.0519 39.5117C14.0725 39.5087 14.0934 39.5075 14.1142 39.5079L20.9326 43.2171C20.9118 43.2167 20.891 43.2179 20.8704 43.2208C20.8596 43.2223 20.8489 43.2243 20.8383 43.2267L20.8383 43.2267C20.8121 43.2327 20.7864 43.2411 20.7616 43.2516V43.2516L13.9431 39.5424C13.9671 39.5323 13.9918 39.5241 14.0172 39.5181ZM13.8939 39.566L13.8938 39.566C13.9092 39.5576 13.925 39.5499 13.9412 39.543L20.7597 43.2522C20.7436 43.259 20.7278 43.2667 20.7125 43.2751L20.7126 43.2751C20.6996 43.2822 20.6869 43.2899 20.6744 43.2981L20.6758 43.2989C20.6643 43.3065 20.653 43.3145 20.6419 43.323L13.8234 39.6138C13.8342 39.6055 13.8453 39.5977 13.8565 39.5902L13.8551 39.5894C13.8678 39.5811 13.8807 39.5733 13.8939 39.566ZM20.6102 43.3478L13.7917 39.6386C13.8018 39.6299 13.812 39.6215 13.8225 39.6134L20.641 43.3226C20.6305 43.3306 20.6202 43.339 20.6102 43.3478ZM13.7613 39.6663L13.76 39.6656C13.7694 39.6564 13.7789 39.6475 13.7887 39.639L20.6072 43.3481C20.5977 43.3564 20.5885 43.365 20.5794 43.3739L20.5806 43.3746C20.5715 43.3836 20.5626 43.3929 20.5539 43.4025L20.5544 43.4027C20.5457 43.4123 20.5373 43.4221 20.5292 43.4322L20.5284 43.4318C20.5202 43.442 20.5122 43.4525 20.5046 43.4632L20.5045 43.4632L13.6861 39.754C13.6938 39.7433 13.7017 39.7328 13.7099 39.7226L13.7107 39.723C13.7189 39.713 13.7272 39.7031 13.7358 39.6936L13.7354 39.6933C13.7438 39.684 13.7524 39.675 13.7613 39.6663ZM13.6643 39.7892L13.6614 39.7877C13.6686 39.7763 13.6761 39.7652 13.6839 39.7543L20.5023 43.4635C20.4949 43.4739 20.4877 43.4845 20.4809 43.4954L20.4837 43.4969C20.4762 43.5088 20.4691 43.521 20.4623 43.5334L13.6438 39.8242C13.6503 39.8123 13.6571 39.8007 13.6643 39.7892ZM13.6227 39.8645L20.4412 43.5737C20.4475 43.5599 20.4544 43.5463 20.4616 43.533L13.6432 39.8238C13.6359 39.8371 13.6291 39.8507 13.6227 39.8645ZM13.6016 39.912L13.6024 39.9125C13.5953 39.9317 13.5892 39.9512 13.584 39.971L20.4025 43.6801V43.6802C20.4077 43.6601 20.4139 43.6404 20.4211 43.6211L20.4203 43.6206C20.4261 43.6049 20.4325 43.5895 20.4395 43.5744L13.621 39.8652C13.6139 39.8806 13.6075 39.8962 13.6016 39.912ZM20.9341 43.217L14.1157 39.5078C14.1386 39.5083 14.1614 39.5109 14.1839 39.5156L21.0024 43.2248C20.9799 43.2201 20.9571 43.2175 20.9341 43.217ZM14.1861 39.5157L21.0046 43.2249C21.0189 43.228 21.033 43.2319 21.0469 43.2366L14.2284 39.5274C14.2146 39.5227 14.2004 39.5188 14.1861 39.5157ZM21.0468 43.2364L14.2283 39.5272C14.2401 39.5312 14.2517 39.5358 14.263 39.541L21.0815 43.2502C21.0787 43.2489 21.0759 43.2477 21.0731 43.2465L21.1019 43.2622C21.0942 43.2579 21.0863 43.254 21.0785 43.2504L21.0652 43.2432C21.0591 43.2408 21.053 43.2385 21.0468 43.2364Z" fill="url(#paint4_linear_5635_241)" shape-rendering="crispEdges"/>
</g>
<g filter="url(#filter4_bd_5635_241)">
<path d="M60.187 13.9075C60.4193 13.82 60.5037 13.9843 60.3879 14.1042C46.5308 28.4325 37.0138 46.3915 32.9383 65.9032C32.8971 66.0989 32.7913 66.2749 32.6379 66.4031C32.5657 66.4665 32.4768 66.5079 32.3818 66.5224C31.4216 66.5079 30.4956 66.163 29.7599 65.5458C29.0341 64.9152 28.5252 64.0721 28.3054 63.1361C26.7563 56.4028 24.1069 49.9714 20.4639 44.1008C20.4197 44.0176 20.3953 43.9253 20.3928 43.8312C20.3903 43.737 20.4096 43.6436 20.4492 43.5582C20.4889 43.4728 20.5478 43.3977 20.6214 43.3389C20.695 43.2801 20.7812 43.2392 20.8732 43.2193C20.9329 43.2109 20.9937 43.2169 21.0507 43.2366C21.1076 43.2563 21.1591 43.2892 21.2008 43.3327C25.078 47.152 28.3939 51.5019 31.0492 56.2526C37.1933 39.8853 47.3134 25.1985 60.187 13.9075Z" fill="url(#paint5_linear_5635_241)" shape-rendering="crispEdges"/>
<path d="M32.4775 66.2112L32.4776 66.2113C32.5878 66.1192 32.6639 65.9927 32.6935 65.8521C32.6936 65.852 32.6936 65.8519 32.6936 65.8518L32.9383 65.9032C37.0138 46.3915 46.5308 28.4325 60.3879 14.1042L32.4775 66.2112ZM32.4775 66.2112L32.4729 66.2152C32.441 66.2432 32.4027 66.2627 32.3615 66.272C31.468 66.253 30.6075 65.9299 29.9222 65.3556C29.237 64.7597 28.7566 63.9635 28.5489 63.0795C26.9944 56.3227 24.3362 49.8686 20.6813 43.977C20.6573 43.9296 20.6441 43.8775 20.6427 43.8244C20.6412 43.7689 20.6526 43.7138 20.676 43.6635C20.6994 43.6131 20.7341 43.5689 20.7775 43.5342C20.8182 43.5017 20.8654 43.4784 20.9158 43.466C20.9338 43.4646 20.9518 43.4669 20.9689 43.4728C20.9885 43.4796 21.0061 43.4909 21.0205 43.5058L21.0204 43.5059L21.0254 43.5108C24.8857 47.3135 28.1872 51.6446 30.831 56.3746L31.0939 56.8449L31.2833 56.3405C37.0935 40.8626 46.4675 26.8916 58.3653 15.885L32.4775 66.2112Z" stroke="url(#paint6_radial_5635_241)" stroke-width="0.5" shape-rendering="crispEdges"/>
<path d="M32.4775 66.2112L32.4776 66.2113C32.5878 66.1192 32.6639 65.9927 32.6935 65.8521C32.6936 65.852 32.6936 65.8519 32.6936 65.8518L32.9383 65.9032C37.0138 46.3915 46.5308 28.4325 60.3879 14.1042L32.4775 66.2112ZM32.4775 66.2112L32.4729 66.2152C32.441 66.2432 32.4027 66.2627 32.3615 66.272C31.468 66.253 30.6075 65.9299 29.9222 65.3556C29.237 64.7597 28.7566 63.9635 28.5489 63.0795C26.9944 56.3227 24.3362 49.8686 20.6813 43.977C20.6573 43.9296 20.6441 43.8775 20.6427 43.8244C20.6412 43.7689 20.6526 43.7138 20.676 43.6635C20.6994 43.6131 20.7341 43.5689 20.7775 43.5342C20.8182 43.5017 20.8654 43.4784 20.9158 43.466C20.9338 43.4646 20.9518 43.4669 20.9689 43.4728C20.9885 43.4796 21.0061 43.4909 21.0205 43.5058L21.0204 43.5059L21.0254 43.5108C24.8857 47.3135 28.1872 51.6446 30.831 56.3746L31.0939 56.8449L31.2833 56.3405C37.0935 40.8626 46.4675 26.8916 58.3653 15.885L32.4775 66.2112Z" stroke="url(#paint7_radial_5635_241)" stroke-width="0.5" shape-rendering="crispEdges"/>
</g>
<defs>
<filter id="filter0_bd_5635_241" x="40.3652" y="0.173828" width="35.0156" height="31.7344" filterUnits="userSpaceOnUse" color-interpolation-filters="sRGB">
<feFlood flood-opacity="0" result="BackgroundImageFix"/>
<feGaussianBlur in="BackgroundImageFix" stdDeviation="4"/>
<feComposite in2="SourceAlpha" operator="in" result="effect1_backgroundBlur_5635_241"/>
<feColorMatrix in="SourceAlpha" type="matrix" values="0 0 0 0 0 0 0 0 0 0 0 0 0 0 0 0 0 0 127 0" result="hardAlpha"/>
<feOffset dx="1" dy="4"/>
<feGaussianBlur stdDeviation="7"/>
<feComposite in2="hardAlpha" operator="out"/>
<feColorMatrix type="matrix" values="0 0 0 0 0 0 0 0 0 0.129412 0 0 0 0 0.278431 0 0 0 0.07 0"/>
<feBlend mode="normal" in2="effect1_backgroundBlur_5635_241" result="effect2_dropShadow_5635_241"/>
<feBlend mode="normal" in="SourceGraphic" in2="effect2_dropShadow_5635_241" result="shape"/>
</filter>
<filter id="filter1_bd_5635_241" x="11.2285" y="0.199219" width="63.957" height="74.0527" filterUnits="userSpaceOnUse" color-interpolation-filters="sRGB">
<feFlood flood-opacity="0" result="BackgroundImageFix"/>
<feGaussianBlur in="BackgroundImageFix" stdDeviation="4"/>
<feComposite in2="SourceAlpha" operator="in" result="effect1_backgroundBlur_5635_241"/>
<feColorMatrix in="SourceAlpha" type="matrix" values="0 0 0 0 0 0 0 0 0 0 0 0 0 0 0 0 0 0 127 0" result="hardAlpha"/>
<feOffset dx="1" dy="4"/>
<feGaussianBlur stdDeviation="7"/>
<feComposite in2="hardAlpha" operator="out"/>
<feColorMatrix type="matrix" values="0 0 0 0 0 0 0 0 0 0.129412 0 0 0 0 0.278431 0 0 0 0.07 0"/>
<feBlend mode="normal" in2="effect1_backgroundBlur_5635_241" result="effect2_dropShadow_5635_241"/>
<feBlend mode="normal" in="SourceGraphic" in2="effect2_dropShadow_5635_241" result="shape"/>
</filter>
<filter id="filter2_bd_5635_241" x="0.566406" y="29.9707" width="44.877" height="54.0449" filterUnits="userSpaceOnUse" color-interpolation-filters="sRGB">
<feFlood flood-opacity="0" result="BackgroundImageFix"/>
<feGaussianBlur in="BackgroundImageFix" stdDeviation="4"/>
<feComposite in2="SourceAlpha" operator="in" result="effect1_backgroundBlur_5635_241"/>
<feColorMatrix in="SourceAlpha" type="matrix" values="0 0 0 0 0 0 0 0 0 0 0 0 0 0 0 0 0 0 127 0" result="hardAlpha"/>
<feOffset dx="1" dy="4"/>
<feGaussianBlur stdDeviation="7"/>
<feComposite in2="hardAlpha" operator="out"/>
<feColorMatrix type="matrix" values="0 0 0 0 0 0 0 0 0 0.129412 0 0 0 0 0.278431 0 0 0 0.07 0"/>
<feBlend mode="normal" in2="effect1_backgroundBlur_5635_241" result="effect2_dropShadow_5635_241"/>
<feBlend mode="normal" in="SourceGraphic" in2="effect2_dropShadow_5635_241" result="shape"/>
</filter>
<filter id="filter3_bd_5635_241" x="0.583984" y="29.5078" width="35.5176" height="32.1719" filterUnits="userSpaceOnUse" color-interpolation-filters="sRGB">
<feFlood flood-opacity="0" result="BackgroundImageFix"/>
<feGaussianBlur in="BackgroundImageFix" stdDeviation="4"/>
<feComposite in2="SourceAlpha" operator="in" result="effect1_backgroundBlur_5635_241"/>
<feColorMatrix in="SourceAlpha" type="matrix" values="0 0 0 0 0 0 0 0 0 0 0 0 0 0 0 0 0 0 127 0" result="hardAlpha"/>
<feOffset dx="1" dy="4"/>
<feGaussianBlur stdDeviation="7"/>
<feComposite in2="hardAlpha" operator="out"/>
<feColorMatrix type="matrix" values="0 0 0 0 0 0 0 0 0 0.129412 0 0 0 0 0.278431 0 0 0 0.07 0"/>
<feBlend mode="normal" in2="effect1_backgroundBlur_5635_241" result="effect2_dropShadow_5635_241"/>
<feBlend mode="normal" in="SourceGraphic" in2="effect2_dropShadow_5635_241" result="shape"/>
</filter>
<filter id="filter4_bd_5635_241" x="7.39258" y="3.88281" width="68.0469" height="80.6387" filterUnits="userSpaceOnUse" color-interpolation-filters="sRGB">
<feFlood flood-opacity="0" result="BackgroundImageFix"/>
<feGaussianBlur in="BackgroundImageFix" stdDeviation="4"/>
<feComposite in2="SourceAlpha" operator="in" result="effect1_backgroundBlur_5635_241"/>
<feColorMatrix in="SourceAlpha" type="matrix" values="0 0 0 0 0 0 0 0 0 0 0 0 0 0 0 0 0 0 127 0" result="hardAlpha"/>
<feOffset dx="1" dy="4"/>
<feGaussianBlur stdDeviation="7"/>
<feComposite in2="hardAlpha" operator="out"/>
<feColorMatrix type="matrix" values="0 0 0 0 0 0 0 0 0 0.129412 0 0 0 0 0.278431 0 0 0 0.07 0"/>
<feBlend mode="normal" in2="effect1_backgroundBlur_5635_241" result="effect2_dropShadow_5635_241"/>
<feBlend mode="normal" in="SourceGraphic" in2="effect2_dropShadow_5635_241" result="shape"/>
</filter>
<linearGradient id="paint0_linear_5635_241" x1="58.9076" y1="11.3069" x2="56.8737" y2="13.9076" gradientUnits="userSpaceOnUse">
<stop stop-color="white" stop-opacity="0.72"/>
<stop offset="1" stop-color="white" stop-opacity="0.38"/>
</linearGradient>
<linearGradient id="paint1_linear_5635_241" x1="57.7175" y1="6.85505" x2="26.3268" y2="54.6995" gradientUnits="userSpaceOnUse">
<stop stop-color="white"/>
<stop offset="1" stop-color="white" stop-opacity="0.26"/>
</linearGradient>
<linearGradient id="paint2_linear_5635_241" x1="22.0046" y1="39.9707" x2="22.0046" y2="66.0158" gradientUnits="userSpaceOnUse">
<stop stop-color="white" stop-opacity="0.31"/>
<stop offset="1" stop-color="white" stop-opacity="0.6"/>
</linearGradient>
<radialGradient id="paint3_radial_5635_241" cx="0" cy="0" r="1" gradientUnits="userSpaceOnUse" gradientTransform="translate(16.1579 53.7832) rotate(27.4218) scale(6.5867 4.26795)">
<stop stop-color="white"/>
<stop offset="1" stop-color="white" stop-opacity="0"/>
</radialGradient>
<linearGradient id="paint4_linear_5635_241" x1="19.2233" y1="40.0949" x2="17.3426" y2="43.68" gradientUnits="userSpaceOnUse">
<stop stop-color="white" stop-opacity="0.72"/>
<stop offset="1" stop-color="white" stop-opacity="0.05"/>
</linearGradient>
<linearGradient id="paint5_linear_5635_241" x1="60.4395" y1="13.8828" x2="28.8487" y2="64.1718" gradientUnits="userSpaceOnUse">
<stop stop-color="white" stop-opacity="0.33"/>
<stop offset="1" stop-color="white"/>
</linearGradient>
<radialGradient id="paint6_radial_5635_241" cx="0" cy="0" r="1" gradientUnits="userSpaceOnUse" gradientTransform="translate(35.1563 54.7397) rotate(-89.297) scale(13.0128 9.8998)">
<stop stop-color="white"/>
<stop offset="0.0001" stop-color="white" stop-opacity="0.26"/>
<stop offset="1" stop-color="white" stop-opacity="0"/>
</radialGradient>
<radialGradient id="paint7_radial_5635_241" cx="0" cy="0" r="1" gradientUnits="userSpaceOnUse" gradientTransform="translate(21.5857 54.4204) rotate(36.573) scale(9.24408 7.03268)">
<stop stop-color="white"/>
<stop offset="1" stop-color="white" stop-opacity="0"/>
</radialGradient>
</defs>
</svg>
