<svg width="24" height="25" viewBox="0 0 24 25" fill="none" xmlns="http://www.w3.org/2000/svg">
<path d="M17.121 12.3593C14.8459 11.8824 13.0676 10.1041 12.5908 7.82897C12.5322 7.54968 12.2859 7.34961 12.0004 7.34961C11.715 7.34961 11.4686 7.54968 11.4101 7.82901C10.9332 10.1041 9.15493 11.8823 6.87982 12.3592C6.6005 12.4177 6.40039 12.6641 6.40039 12.9495C6.40039 13.2349 6.60046 13.4813 6.87982 13.5398C9.15489 14.0168 10.9331 15.795 11.41 18.0701C11.4685 18.3494 11.7149 18.5495 12.0003 18.5495C12.2857 18.5495 12.5321 18.3495 12.5906 18.0701C13.0676 15.795 14.8459 14.0168 17.121 13.5399C17.4003 13.4814 17.6004 13.2351 17.6004 12.9496C17.6004 12.6642 17.4003 12.4178 17.121 12.3593Z" fill="url(#paint0_linear_1350_24945)"/>
<defs>
<linearGradient id="paint0_linear_1350_24945" x1="4.80729" y1="12.9496" x2="19.4601" y2="12.9496" gradientUnits="userSpaceOnUse">
<stop stop-color="#255DBE"/>
<stop offset="1" stop-color="#5A9BF8"/>
</linearGradient>
</defs>
</svg>
